  
<svg version="1.0" xmlns="http://www.w3.org/2000/svg"
 width="512" height="512" viewBox="0 0 512 512"
 preserveAspectRatio="xMidYMid meet"><g transform="translate(0.000000,512.000000) scale(0.100000,-0.100000)"
fill="#fff" stroke="none"><path d="M235 4506 c-59 -27 -128 -99 -158 -164 l-22 -47 0 -1735 0 -1735 28
-57 c16 -33 49 -76 78 -102 93 -83 -133 -76 2399 -76 2532 0 2306 -7 2399 76
29 26 62 69 78 102 l28 57 0 1735 0 1735 -28 57 c-16 33 -49 76 -78 102 -93
83 134 76 -2408 76 l-2266 0 -50 -24z m4233 -389 c-845 -947 -1904 -2127
-1908 -2127 -4 0 -1063 1180 -1908 2127 l-84 93 1992 0 1992 0 -84 -93z
m-3466 -864 c337 -377 613 -689 613 -693 0 -8 -1220 -1375 -1235 -1385 -7 -4
-10 474 -10 1385 0 901 3 1389 10 1385 5 -3 285 -315 622 -692z m3748 -694 c0
-910 -3 -1388 -10 -1384 -15 10 -1235 1377 -1235 1385 0 10 1232 1390 1240
1390 3 0 5 -626 5 -1391z m-2621 -572 c317 -353 338 -371 431 -371 93 0 114
18 432 372 l291 324 24 -25 c14 -13 296 -328 627 -698 l603 -674 -989 -3
c-543 -1 -1433 -1 -1976 0 l-989 3 624 698 c343 383 626 697 628 697 2 0 134
-145 294 -323z"/></g></svg>