<svg version="1.0" xmlns="http://www.w3.org/2000/svg" width="512" height="512" viewBox="0 0 512 512" preserveAspectRatio="xMidYMid meet"><g transform="translate(0.000000,512.000000) scale(0.100000,-0.100000)" fill="#fff" stroke="none"><path d="M2315 5109 c-800 -83 -1501 -518 -1927 -1196 -349 -555 -466 -1222 -332 -1883 77 -374 258 -759 504 -1067 276 -345 658 -626 1074 -788 141 -56 199 -60 246 -17 18 15 34 42 38 62 5 19 6 142 4 273 -4 238 -4 239 -26 233 -63 -17 -204 -28 -296 -23 -186 10 -307 57 -421 164 -61 58 -76 80 -139 207 -78 158 -152 257 -235 313 -81 55 -127 102 -123 126 5 34 44 48 123 44 141 -8 278 -104 388 -270 128 -194 278 -276 482 -264 59 3 118 15 172 32 l81 27 17 74 c19 86 61 173 109 230 l35 41 -133 21 c-695 114 -1027 510 -1026 1225 0 163 19 275 69 404 33 85 112 215 161 268 l29 30 -20 70 c-26 88 -35 264 -20 365 6 41 23 114 38 163 l26 87 67 0 c136 0 314 -65 523 -192 l118 -71 92 22 c155 36 284 52 472 58 212 7 355 -5 571 -48 l150 -30 90 56 c112 71 246 136 349 171 60 20 102 27 170 28 l90 1 23 -64 c57 -159 67 -396 23 -546 l-20 -70 29 -30 c49 -53 128 -183 161 -268 49 -128 69 -241 69 -399 0 -481 -154 -828 -456 -1025 -173 -112 -347 -169 -667 -218 l-38 -6 36 -42 c44 -51 89 -142 112 -228 15 -55 17 -122 19 -484 2 -231 3 -433 3 -448 1 -19 13 -41 35 -63 30 -30 40 -34 84 -34 110 0 434 147 664 302 274 184 538 450 721 728 85 130 224 410 272 550 266 773 161 1600 -290 2275 -93 139 -178 242 -313 379 -393 398 -891 648 -1457 732 -123 18 -478 26 -600 13z"/></g></svg>